<?xml version="1.0" encoding="utf-8"?>
<!-- Generator: Adobe Illustrator 12.0.0, SVG Export Plug-In . SVG Version: 6.00 Build 51448)  -->
<!DOCTYPE svg PUBLIC "-//W3C//DTD SVG 1.1//EN" "http://www.w3.org/Graphics/SVG/1.1/DTD/svg11.dtd" [
	<!ENTITY ns_svg "http://www.w3.org/2000/svg">
	<!ENTITY ns_xlink "http://www.w3.org/1999/xlink">
]>
<svg  version="1.1" id="Layer_1" xmlns="&ns_svg;" xmlns:xlink="&ns_xlink;" width="116.863" height="26.156"
	 viewBox="0 0 116.863 26.156" overflow="visible" enable-background="new 0 0 116.863 26.156" xml:space="preserve">
<g>
	<g>
		<path fill="none" d="M88.074,10.255c4.153,0,7.986,0.32,12.137,0.639"/>
		<path d="M88.013,10.908c3.913,0.65,8.149,0.638,12.118,0.833c1.094,0.054,1.256-1.581,0.16-1.695
			C96.33,9.63,91.916,8.997,87.96,9.608C87.194,9.727,87.308,10.791,88.013,10.908L88.013,10.908z"/>
	</g>
</g>
<g>
	<g>
		<path fill="none" d="M0.53,24.628l12.922-0.318c3.08,0.318,4.152-0.957,6.068-1.597c5.111-2.235,7.028-8.305,12.777-7.985
			c-2.555,1.597-11.818,4.152-9.264,8.942c2.876,5.751,11.181-5.428,12.139-8.624c-3.833,4.154-3.277,12.778,3.432,9.264
			c4.79-2.556,8.581-18.416,10.18-23.527c-1.278,4.154-8.367,17.857-6.824,22.346c1.833,5.333,11.295-1.053,10.976-5.207
			c-1.277,0-1.851,0.052-2.81,0.373c5.111,1.596,7.92-0.373,11.754-2.608c-3.514,0.958-8.944,6.027-4.471,8.583
			c4.792,2.556,9.263-4.431,5.11-7.306c2.555,6.39,7.666,0.64,10.223-2.235c-2.557,2.555-4.474,8.625,0,9.264
			c3.832,0.639,6.388-5.432,7.986-8.306c-1.278,2.235-2.237,5.473-1.918,8.027C88.074,24.991,93.505,8.02,95.102,1.631
			c-0.318,5.111-7.985,14.415-5.749,19.527c2.234,4.472,8.013,3.47,11.846,3.47h14.928"/>
		<path d="M0.479,25.169c4.271-0.004,8.542-0.058,12.813-0.154c2.927-0.065,5.035-0.884,7.664-2.229
			c4.222-2.161,5.947-7.182,11.272-7.328c-0.082-0.465-0.164-0.929-0.245-1.394c-2.691,1.512-15.396,6.578-8.438,11.449
			c4.679,3.276,11.146-6.883,12.357-10.197c0.315-0.864-0.823-1.386-1.367-0.717c-3.664,4.506-3.371,13.873,4.406,10.42
			c3.232-1.436,4.874-6.527,6.042-9.488c1.858-4.71,3.066-9.642,4.541-14.476c0.296-0.968-1.157-1.518-1.48-0.547
			c-1.38,4.142-3.352,8.089-4.898,12.173c-1.026,2.709-3.313,7.825-1.901,10.786c2.963,6.218,12.246-0.518,12.488-5.472
			c0.027-0.569-0.407-0.886-0.936-0.863c-0.962-0.056-1.898,0.068-2.811,0.372c-0.701,0.167-0.975,1.332-0.139,1.541
			c4.889,1.221,8.151-0.151,12.378-2.632c0.903-0.53,0.287-1.802-0.691-1.457c-4.493,1.583-10.103,7.852-3.31,10.497
			c5.408,2.105,8.479-5.799,4.761-9.156c-0.623-0.563-1.541,0.329-1.199,1.014c3.196,6.4,8.261,1.604,11.603-2.132
			c-0.431-0.302-0.862-0.603-1.293-0.904c-2.313,2.627-4.577,7.735-0.795,10.095c4.788,2.985,8.545-5.388,10.074-8.232
			c-0.462-0.242-0.925-0.483-1.387-0.726c-1.393,2.732-2.088,5.374-1.955,8.438c0.015,0.34,0.388,0.626,0.703,0.649
			C89.3,25.286,93.828,9.795,95.857,1.91c-0.52-0.118-1.039-0.236-1.559-0.355c-0.899,6.89-12.835,20.525-0.507,23.695
			c3.518,0.904,7.829,0.207,11.489,0.209c3.592,0.001,7.183-0.072,10.772-0.072c0.976,0,1.125-1.518,0.145-1.518
			c-4.973,0-9.947-0.072-14.922-0.07c-2.737,0.001-5.36,0.29-8.057-0.4c-5.253-1.348-3.243-6.811-1.944-10.017
			c1.563-3.86,4.089-7.473,4.629-11.675c0.114-0.895-1.331-1.249-1.559-0.355c-1.213,4.754-2.845,9.407-5.166,13.739
			c-1.281,2.393-2.922,4.572-5.021,6.301c-5.217,4.294-4.408-2.06-2.689-5.433c0.406-0.796-0.964-1.513-1.387-0.726
			c-0.903,1.68-1.777,3.359-2.803,4.97c-1.714,2.69-7.114,1.88-5.928-1.807c0.403-1.251,1.19-2.255,2.037-3.217
			c0.675-0.766-0.624-1.652-1.293-0.904c-2.095,2.342-6.205,7.613-8.843,2.339c-0.399,0.338-0.8,0.676-1.199,1.014
			c0.428,0.895,0.856,1.788,1.284,2.683c-1.047,4.155-3.056,3.999-6.027-0.47c1.047-1.715,3.087-2.782,4.915-3.427
			c-0.23-0.485-0.461-0.972-0.691-1.457c-3.682,2.162-6.711,3.684-11.13,2.585c-0.047,0.514-0.093,1.027-0.139,1.541
			c0.911-0.304,1.848-0.429,2.809-0.374c-0.312-0.288-0.623-0.576-0.936-0.863c-0.155,3.26-3.698,5.696-6.586,6.443
			c-5.141,1.33-2.154-7.427-1.706-8.834c1.567-4.926,4.048-9.503,5.678-14.399c-0.493-0.182-0.987-0.365-1.48-0.547
			c-1.476,4.843-2.766,9.726-4.536,14.476c-1.035,2.775-2.253,5.665-4.281,7.869c-2.404,2.612-5.759,0.981-5.617-2.396
			c0.078-1.861,1.065-3.566,2.201-4.966c-0.456-0.239-0.912-0.478-1.367-0.717c-1.301,3.57-4.322,7.241-7.531,9.22
			c-2.578,1.589-4.79-1.68-2.252-4.26c0.893-0.907,2.118-1.48,3.229-2.067c1.547-0.817,3.197-1.419,4.723-2.277
			c0.564-0.317,0.546-1.416-0.245-1.394c-7.754,0.218-10.776,9.395-18.942,9.611c-4.331,0.115-8.661,0.275-12.989,0.484
			C-0.175,24.123-0.13,25.169,0.479,25.169L0.479,25.169z"/>
	</g>
</g>
</svg>
