<?xml version="1.0" encoding="utf-8"?>
<!-- Generator: Adobe Illustrator 12.0.0, SVG Export Plug-In . SVG Version: 6.00 Build 51448)  -->
<!DOCTYPE svg PUBLIC "-//W3C//DTD SVG 1.1//EN" "http://www.w3.org/Graphics/SVG/1.1/DTD/svg11.dtd" [
	<!ENTITY ns_svg "http://www.w3.org/2000/svg">
	<!ENTITY ns_xlink "http://www.w3.org/1999/xlink">
]>
<svg  version="1.1" id="Layer_1" xmlns="&ns_svg;" xmlns:xlink="&ns_xlink;" width="271.784" height="63.425"
	 viewBox="0 0 271.784 63.425" overflow="visible" enable-background="new 0 0 271.784 63.425" xml:space="preserve">
<g>
	<g>
		<path fill="none" d="M0.545,60.165C28.327,67.829,39.62,29.969,64.73,36.173c-16.852-16.871-35.446,26.866-9.58,25.908
			c28.74-0.958,16.286-39.278,46.941-28.74c-6.706,0.958-17.244,1.916-22.992,7.664c-5.748,7.664-8.622,22.034,4.79,21.076
			c15.328-1.916,33.529-46.941,33.529-60.354c-6.706,7.664-27.782,48.857-17.244,58.438c5.748,4.79,21.87-3.196,25.865-8.706
			c6.772-9.339,5.748-20.37,21.076-18.454c-23.949-2.874-30.655,37.697-8.622,28.118c20.118-7.664,19.613-42.151,25.361-60.353
			c-13.412,16.286-28.74,49.815-0.958,59.395c11.496,3.832,39.397,0.804,54.397,0.804h53.751"/>
		<path d="M0.356,60.675c11.929,3.171,21.734-1.893,30.938-9.147c9.85-7.764,19.71-17.69,33.367-14.625
			c0.613,0.138,1.072-0.778,0.627-1.203c-15.884-15.151-33.6,18.506-17.731,25.787c10.542,4.836,21.891-1.72,27.331-10.741
			c2.722-4.514,4.545-9.548,7.838-13.71c4.83-6.106,12.469-5.137,19.093-2.959c0.045-0.502,0.091-1.005,0.136-1.508
			c-12.042,1.677-24.951,3.685-27.933,17.445c-0.879,4.058-0.802,8.266,2.517,11.159c3.313,2.89,8.705,1.93,12.159-0.054
			c9.514-5.463,15.292-17.873,19.747-27.354c4.519-9.618,9.569-21.129,9.764-31.963c0.015-0.819-0.919-1.142-1.439-0.529
			c-6.142,7.235-10.282,16.826-13.913,25.486c-3.502,8.354-8.803,20.773-5.668,29.994c3.592,10.563,17.708,3.97,24.037-0.046
			c4.63-2.937,7.127-6.973,9.454-11.82c3.673-7.651,7.065-12.003,16.359-11.074c0.051-0.538,0.102-1.077,0.153-1.615
			c-10.083-0.966-18.236,5.276-21.638,14.555c-2.19,5.973-2.032,15.4,5.849,16.572c4.484,0.668,9.6-2.118,13.045-4.66
			c5.07-3.74,8.12-9.748,10.344-15.478c5.253-13.532,5.583-28.339,9.803-42.143c0.267-0.874-0.819-1.425-1.387-0.727
			c-9.717,11.963-19.897,29.856-15.733,45.826c5.07,19.448,31.064,17.074,46.271,16.512c25.745-0.953,51.462-0.928,77.227-0.928
			c0.975,0,1.125-1.518,0.144-1.518c-21.583,0-43.242-0.675-64.812,0.25c-10.583,0.454-21.184,1.156-31.778,0.653
			c-9.435-0.447-19.322-2.957-24.15-11.896c-8.17-15.122,4.775-36.484,14.125-47.995c-0.462-0.242-0.924-0.484-1.387-0.727
			c-3.163,10.346-4.22,21.227-6.693,31.741c-2.595,11.029-6.94,23.53-18.267,28.173c-3.618,1.483-8.071,2.456-10.794-1.088
			c-2.195-2.856-1.621-7.344-0.786-10.562c2.417-9.314,10.785-15.873,20.464-14.948c1.043,0.1,1.192-1.512,0.153-1.615
			c-4.479-0.447-8.729-0.176-12.302,2.799c-3.307,2.753-4.832,7.552-6.677,11.276c-3.079,6.211-7.947,9.705-14.213,12.437
			c-5.36,2.336-13.485,4.127-15.476-3.109c-2.545-9.251,2.78-21.001,6.272-29.343c3.441-8.218,7.449-17.215,13.271-24.075
			c-0.479-0.176-0.959-0.353-1.439-0.529c-0.145,8.129-3.419,16.414-6.356,23.875c-3.769,9.575-8.485,19.032-14.85,27.16
			c-2.518,3.217-5.551,6.307-9.331,7.989c-6.016,2.679-11.268-1.493-10.972-7.65c0.71-14.78,15.299-17.265,27.106-18.914
			c0.767-0.107,0.873-1.267,0.136-1.508c-8.61-2.827-16.662-2.689-22.164,5.221c-5.352,7.694-7.346,17.391-16.575,21.698
			c-5.009,2.338-12.42,2.916-17.057-0.491c-3.677-2.703-3.824-7.939-3.059-11.987c1.84-9.737,11.829-18.821,20.662-10.399
			c0.209-0.4,0.418-0.802,0.627-1.203C39.081,29.679,27.191,66.124,0.733,59.655C0.064,59.492-0.324,60.493,0.356,60.675
			L0.356,60.675z"/>
	</g>
</g>
</svg>
