<?xml version="1.0" encoding="utf-8"?>
<!-- Generator: Adobe Illustrator 12.0.0, SVG Export Plug-In . SVG Version: 6.00 Build 51448)  -->
<!DOCTYPE svg PUBLIC "-//W3C//DTD SVG 1.1//EN" "http://www.w3.org/Graphics/SVG/1.1/DTD/svg11.dtd" [
	<!ENTITY ns_svg "http://www.w3.org/2000/svg">
	<!ENTITY ns_xlink "http://www.w3.org/1999/xlink">
]>
<svg  version="1.1" id="Layer_1" xmlns="&ns_svg;" xmlns:xlink="&ns_xlink;" width="156.859" height="27.068"
	 viewBox="0 0 156.859 27.068" overflow="visible" enable-background="new 0 0 156.859 27.068" xml:space="preserve">
<g>
	<g>
		<path fill="none" d="M0.526,25.135h14.928c9.667,0.334,14.334-10.666,23-10c-3,1.334-7.666,2.334-7.666,6c0,3,4.333,5.334,7,5.334
			c7.333,0,8.333-10.667,16-9.334c-4.667,0-13.334,4.667-5.334,7.667c5,2,9.334-4,6.334-7.667c-0.667,1-0.334,1.334-0.667,2.334
			c4.333,0.333,8-2,12-3.667c0,3.667-2.77,5.999-3.77,9.333c1.333-1.334,5.437-7.666,7.437-7.666c4.333,0,0.333,5,2,7
			c5,5.333,12.333-20.334,14-23.334c-3,2.667-9.334,20.334-4,23.334c5.333,3.666,12.666-9,18-8.667
			c-2.334,0.333-11.334,3.333-9.667,8c1.667,4.333,10.667-3.667,11-6.333c-6,4.333,0,9.333,4,8.333c4-0.667,8-10.667,12-8.333
			c-10.667-1.334-7.667,10.666,1.333,6.666c7.667-3.666,9.334-16.666,12.667-23.333c-2.667,4.333-8.333,12-9,17.333
			c-0.35,2.213,2.396,6.661,6.639,6.776c8.259,0.224,23.892,0.224,27.361,0.224"/>
		<path d="M0.476,25.676c4.942,0.094,9.886,0.152,14.83,0.16c9.231,0.015,14.157-10.133,23.079-9.972
			c-0.082-0.464-0.163-0.928-0.245-1.392c-3.08,1.275-6.347,2.092-7.885,5.276c-1.287,2.665,1.721,5.636,3.881,6.54
			c9.745,4.083,11.091-9.247,19.579-8.38c-0.021-0.514-0.041-1.027-0.062-1.54c-3.941,0.243-13.314,4.243-7.031,8.453
			c5.413,3.627,12.419-2.368,8.876-8.024c-0.35-0.559-1.178-0.621-1.447,0.064c-0.499,1.269-0.478,1.214-0.713,2.532
			c-0.07,0.396,0.305,0.855,0.709,0.857c4.583,0.019,8.289-1.937,12.412-3.738c-0.374-0.263-0.748-0.524-1.122-0.786
			c-0.357,3.415-2.535,6.012-3.726,9.134c-0.344,0.901,0.822,1.353,1.387,0.726c1.904-2.114,3.428-4.514,5.482-6.506
			c3.198-3.099,2.105,3.627,2.088,3.817c-0.071,0.761,0.18,1.266,0.505,1.91c1.194,2.368,4.026,0.674,5.186-0.588
			c5.677-6.175,6.583-15.559,10.279-22.809c0.361-0.709-0.721-1.444-1.267-0.887c-4.273,4.356-8.423,16.421-5.793,22.289
			c4.374,9.757,15.375-5.993,20.45-6.215c-0.094-0.532-0.188-1.063-0.281-1.596c-2.604,0.475-14.771,5.37-9.813,9.897
			c3.734,3.41,11.072-3.549,12.026-7.159c0.19-0.722-0.608-1.434-1.251-0.875c-4.076,3.542-3.186,8.184,2.135,9.706
			c6.328,1.81,9.002-10.447,14.103-8.364c0.115-0.509,0.231-1.018,0.348-1.526c-2.643-0.213-7.186,0.113-7.591,3.634
			c-0.295,2.559,1.522,4.995,4.156,5.319c12.159,1.493,14.473-16.828,18.119-24.553c0.395-0.836-0.937-1.517-1.422-0.745
			c-4.096,6.511-14.114,17.468-5.545,24.156c3.534,2.759,10.994,1.38,15.14,1.416c5.334,0.047,10.663,0.036,15.996-0.017
			c0.969-0.01,1.132-1.508,0.145-1.518c-7.567-0.075-15.135-0.093-22.701-0.199c-6.048-0.084-12.313-1.688-9.663-9.191
			c1.747-4.944,5.19-9.31,7.955-13.72c-0.475-0.248-0.948-0.496-1.422-0.745c-2.704,5.754-3.867,12.088-7.012,17.658
			c-1.942,3.441-5.704,6.884-9.96,5.736c-1.679-0.452-2.584-2.186-2.094-3.798c0.677-2.222,4.078-1.997,5.75-1.862
			c0.905,0.072,1.174-1.189,0.348-1.526c-1.995-0.814-3.46,0.01-5.02,1.324c-1.099,0.927-2.029,2.15-2.959,3.238
			c-0.846,0.988-1.719,1.935-2.688,2.803c-0.582,0.311-1.163,0.621-1.744,0.931c-3.989,0.568-5.106-1.75-3.353-6.954
			c-0.417-0.292-0.834-0.584-1.251-0.875c-0.813,3.077-4.935,6.166-7.849,7.01c-1.814-1.751-1.873-3.178-0.175-4.278
			c0.913-0.858,2.137-1.41,3.255-1.944c1.36-0.65,2.836-1.111,4.316-1.383c1.061-0.193,0.729-1.641-0.281-1.596
			c-5.281,0.232-13.618,12.981-18.187,8.123c-2.401-2.555-0.385-8.984,0.389-11.756c0.879-3.151,2.11-7.231,4.455-9.627
			c-0.422-0.296-0.844-0.591-1.267-0.887c-3.664,7.205-4.464,17.273-10.628,22.987c-2.903,2.691-1.7-4.102-1.815-5.379
			c-0.125-1.381-1.691-1.646-2.732-1.784c-3.073-0.409-6.516,6.177-8.157,8.001c0.462,0.242,0.925,0.483,1.387,0.726
			c1.275-3.348,3.435-5.899,3.813-9.532c0.064-0.613-0.582-1.022-1.122-0.786c-1.478,0.646-2.942,1.318-4.412,1.981
			c-0.554,0.25-6.637,2.35-5.846,0.336c-0.482,0.021-0.965,0.043-1.447,0.064c1.435,1.873,1.197,3.81-0.711,5.813
			c-3.923,2.224-5.963,1.174-6.121-3.149c1.736-1.534,4.446-2.098,6.677-2.234c0.898-0.055,0.784-1.453-0.062-1.54
			c-3.511-0.36-5.939,1.138-8.196,3.752c-2.018,2.337-3.784,4.782-6.958,5.513c-2.513,0.577-11.857-3.713-4.369-7.983
			c1.372-0.782,2.975-1.241,4.431-1.845c0.654-0.271,0.48-1.379-0.245-1.392c-9.142-0.161-13.893,9.854-23.003,10.028
			c-4.979,0.095-9.963,0.066-14.943,0.16C-0.108,24.607-0.232,25.662,0.476,25.676L0.476,25.676z"/>
	</g>
</g>
<g>
	<g>
		<path fill="none" d="M74.788,10.135c4.334-0.667,11.333-1.333,16-1.333"/>
		<path d="M74.729,10.753c5.308-0.007,10.655-0.936,15.978-1.096c1.081-0.032,1.286-1.695,0.162-1.711
			c-5.202-0.074-11.19,0.068-16.188,1.577C74.068,9.708,73.968,10.754,74.729,10.753L74.729,10.753z"/>
	</g>
</g>
<g>
	<g>
		<path fill="none" d="M120.454,10.469c4.667,0,10.667,0.666,15-0.667"/>
		<path d="M120.396,11.075c2.793,0.477,5.756,0.423,8.583,0.408c2.276-0.013,4.918,0.057,6.869-1.217
			c0.448-0.293,0.154-1.049-0.337-1.071c-2.413-0.114-4.901,0.558-7.352,0.587c-2.591,0.031-5.242-0.311-7.812,0.086
			C119.636,9.979,119.744,10.964,120.396,11.075L120.396,11.075z"/>
	</g>
</g>
</svg>
