<?xml version="1.0" encoding="utf-8"?>
<!-- Generator: Adobe Illustrator 12.0.0, SVG Export Plug-In . SVG Version: 6.00 Build 51448)  -->
<!DOCTYPE svg PUBLIC "-//W3C//DTD SVG 1.1//EN" "http://www.w3.org/Graphics/SVG/1.1/DTD/svg11.dtd" [
	<!ENTITY ns_svg "http://www.w3.org/2000/svg">
	<!ENTITY ns_xlink "http://www.w3.org/1999/xlink">
]>
<svg  version="1.1" id="Layer_1" xmlns="&ns_svg;" xmlns:xlink="&ns_xlink;" width="761.282" height="77.124"
	 viewBox="0 0 761.282 77.124" overflow="visible" enable-background="new 0 0 761.282 77.124" xml:space="preserve">
<g>
	<g>
		<line fill="none" x1="332.571" y1="42.118" x2="332.891" y2="42.118"/>
		<path d="M333.036,42.666c-0.208,0.177-0.076,0.06,0.111-0.008c0.503-0.181,0.405-0.937-0.049-1.101
			c-0.033-0.013-0.067-0.022-0.102-0.028c-0.208-0.049-0.211-0.049-0.013,0c-0.425-0.356-1.081,0.018-1.128,0.521
			C331.796,42.68,332.554,43.074,333.036,42.666L333.036,42.666z"/>
	</g>
</g>
<g>
	<g>
		<path fill="none" d="M368.667,43.8c5.025-1.182,10.562-0.086,16.611-1.597"/>
		<path d="M368.796,44.534c5.47-1.029,11.521,0.331,16.786-1.692c0.8-0.308,0.312-1.389-0.427-1.335
			c-3.03,0.222-5.981,0.687-9.038,0.775c-2.563,0.074-5.07,0.226-7.58,0.783C367.603,43.272,367.847,44.713,368.796,44.534
			L368.796,44.534z"/>
	</g>
</g>
<g>
	<g>
		<line fill="none" x1="461.941" y1="46.272" x2="462.261" y2="46.272"/>
		<path d="M462.467,46.893c0.023-0.017,0.047-0.033,0.07-0.05c-0.117,0.056-0.235,0.11-0.354,0.166
			c0.13-0.025,0.252-0.06,0.377-0.104c0.589-0.212,0.474-1.096-0.057-1.288c-0.033-0.013-0.067-0.022-0.103-0.028
			c-0.248-0.062-0.246-0.056,0.006,0.019c-0.5-0.353-1.218-0.018-1.274,0.59C461.061,46.956,461.905,47.285,462.467,46.893
			L462.467,46.893z"/>
	</g>
</g>
<g>
	<g>
		<path fill="none" d="M591.826,46.591c4.153,0,7.986,0.32,12.137,0.639"/>
		<path d="M591.765,47.244c3.913,0.65,8.149,0.638,12.118,0.833c1.094,0.054,1.256-1.581,0.16-1.695
			c-3.961-0.416-8.375-1.049-12.331-0.438C590.946,46.063,591.06,47.127,591.765,47.244L591.765,47.244z"/>
	</g>
</g>
<g>
	<g>
		<path fill="none" d="M0.545,60.16C28.327,67.824,39.62,29.964,64.73,36.168c-16.852-16.871-35.446,26.866-9.58,25.908
			c28.74-0.958,16.286-39.278,46.941-28.74C95.385,34.294,84.848,35.252,79.1,41c-5.748,7.664-8.622,22.034,4.79,21.076
			c15.328-1.916,33.529-46.941,33.529-60.354c-6.706,7.664-27.782,48.857-17.244,58.438c5.748,4.79,21.87-3.196,25.865-8.706
			c6.772-9.339,5.748-20.37,21.076-18.454c-23.949-2.874-30.655,37.697-8.622,28.118c20.118-7.664,19.613-42.151,25.361-60.353
			c-13.412,16.286-28.74,49.815-0.958,59.395c11.496,3.832,39.397,0.804,54.397,0.804h53.751
			c7.027,0.639,18.721-1.596,18.401-10.859c0.639,8.307-6.069,14.694-6.069,22.361c1.597-4.152,2.236-16.93,5.75-19.486
			c9.902-7.347,5.111,15.652,0,6.709c7.985,4.791,10.221-5.11,14.055-9.584c-1.917,4.791,2.875,4.152,4.791,1.277
			c-7.346,15.973,12.138,4.792,10.542-0.638c-2.556,0.638-5.75,7.346-2.556,8.624c4.472,1.917,5.43-6.389,4.152-8.624
			c3.194,4.151,9.583,0.959,12.458-2.237c0,6.709-0.639,20.125-5.43,25.556c-4.792,5.431-6.389,0-5.112-4.793
			c1.278-4.151,3.195-7.025,7.348-8.624c1.916-0.957,23.638-6.389,17.568-11.18c-5.11-4.472-8.944,15.652,3.514,9.263
			c6.708-3.192,3.833-10.54,12.777-10.222c-2.875,1.598-7.985,3.196-8.305,7.029c-0.319,3.832,2.875,4.791,6.389,4.152
			c9.583-2.236,13.736-14.293,14.375-22.598c-1.277,4.792-6.708,16.208-3.833,20.999c4.791,8.306,11.499-9.263,15.012-10.86
			c0.321,3.834,0,19.166-7.666,13.098c7.987-1.599,12.337,1.637,19.076,0.637l15.424,0.002c7.986,0.319,13.097-4.792,17.888-10.222
			c1.278,5.43-0.638,11.5-7.347,8.944c16.292,5.749,18.847-11.861,23.319-22.402c-0.32,7.347-4.792,16.652-4.152,23.68
			c0.319-2.555,1.915-13.417,6.068-12.139c5.75,1.277-3.515,13.417-3.834,7.028c1.598,1.597,6.745,5.429,9.302,5.108
			c4.152-0.64,4.434-6.707,6.032-9.9c-1.599,5.11-1.599,12.139,5.11,6.389c5.431-4.473,5.111-14.097,7.986-19.847
			c-1.916,4.473-11.819,20.484-3.514,23.36c9.264,3.514,14.777-18.25,15.416-23.68c-1.598,3.514-7.431,19.93-3.916,22.804
			c4.791,4.154,9.901-7.43,13.096-9.665c0,2.555-3.833,14.055-6.706,9.581c7.32,0.958,11.494,0.958,15.826,0.958l12.922-0.318
			c3.08,0.318,4.152-0.957,6.068-1.597c5.111-2.235,7.028-8.305,12.777-7.985c-2.555,1.597-11.818,4.152-9.264,8.942
			c2.876,5.751,11.181-5.428,12.139-8.624c-3.833,4.154-3.277,12.778,3.432,9.264c4.79-2.556,8.581-18.416,10.18-23.527
			c-1.278,4.154-8.367,17.857-6.824,22.346c1.833,5.333,11.295-1.053,10.976-5.207c-1.277,0-1.851,0.052-2.81,0.373
			c5.111,1.596,7.92-0.373,11.754-2.608c-3.514,0.958-8.944,6.027-4.471,8.583c4.792,2.556,9.263-4.431,5.11-7.306
			c2.555,6.39,7.666,0.64,10.223-2.235c-2.557,2.555-4.474,8.625,0,9.264c3.832,0.639,6.388-5.432,7.986-8.306
			c-1.278,2.235-2.237,5.473-1.918,8.027c9.264,1.278,14.694-15.693,16.291-22.082c-0.318,5.111-7.985,14.415-5.749,19.527
			c2.234,4.472,8.013,3.47,11.846,3.47h14.928c9.667,0.334,14.334-10.666,23-10c-3,1.334-7.666,2.334-7.666,6
			c0,3,4.333,5.334,7,5.334c7.333,0,8.333-10.667,16-9.334c-4.667,0-13.334,4.667-5.334,7.667c5,2,9.334-4,6.334-7.667
			c-0.667,1-0.334,1.334-0.667,2.334c4.333,0.333,8-2,12-3.667c0,3.667-2.77,5.999-3.77,9.333c1.333-1.334,5.437-7.666,7.437-7.666
			c4.333,0,0.333,5,2,7c5,5.333,12.333-20.334,14-23.334c-3,2.667-9.334,20.334-4,23.334c5.333,3.666,12.666-9,18-8.667
			c-2.334,0.333-11.334,3.333-9.667,8c1.667,4.333,10.667-3.667,11-6.333c-6,4.333,0,9.333,4,8.333c4-0.667,8-10.667,12-8.333
			c-10.667-1.334-7.667,10.666,1.333,6.666c7.667-3.666,9.334-16.666,12.667-23.333c-2.667,4.333-8.333,12-9,17.333
			c-0.35,2.213,2.396,6.661,6.639,6.776c8.259,0.224,23.892,0.224,27.361,0.224"/>
		<path d="M0.356,60.67c11.919,3.083,21.693-1.966,30.892-9.2c9.872-7.765,19.744-17.675,33.416-14.604
			c0.587,0.132,1.026-0.745,0.601-1.151C49.425,20.601,31.78,54.161,47.581,61.419c10.516,4.83,21.833-1.713,27.263-10.71
			c2.724-4.513,4.547-9.547,7.84-13.709c4.846-6.125,12.506-5.163,19.154-2.979c0.042-0.469,0.084-0.937,0.127-1.405
			c-12.012,1.675-24.912,3.665-27.888,17.398c-0.874,4.034-0.809,8.229,2.494,11.109c3.3,2.877,8.665,1.915,12.104-0.06
			c9.498-5.453,15.274-17.856,19.726-27.319c4.522-9.614,9.577-21.12,9.777-31.951c0.015-0.788-0.883-1.097-1.383-0.509
			c-6.144,7.23-10.286,16.819-13.918,25.475c-3.501,8.346-8.8,20.765-5.666,29.978c3.587,10.546,17.687,3.947,24.003-0.061
			c4.623-2.934,7.115-6.966,9.438-11.806c3.678-7.664,7.081-12.026,16.391-11.098c0.049-0.517,0.098-1.032,0.146-1.549
			c-10.075-0.964-18.199,5.273-21.624,14.525c-2.208,5.961-2.021,15.39,5.839,16.559c4.481,0.667,9.595-2.117,13.039-4.657
			c5.069-3.739,8.119-9.745,10.343-15.473c5.254-13.532,5.585-28.339,9.806-42.142c0.266-0.869-0.814-1.417-1.378-0.723
			c-9.812,12.078-20.422,30.653-15.439,46.737c5.893,19.018,32.218,16.113,47.417,15.505c25.825-1.033,51.871-1.548,77.708-0.709
			c7.566,0.246,17.143-2.808,17.333-11.669c-0.524-0.05-1.048-0.099-1.572-0.148c0.22,8.088-5.672,14.403-6.069,22.361
			c-0.043,0.873,1.23,1.223,1.527,0.349c1.915-5.635,0.89-14.969,5.521-19.158c7.27-6.576,4.229,12.176,0.203,5.767
			c-0.389,0.329-0.779,0.658-1.168,0.987c8.37,4.426,10.866-4.382,15.157-9.777c-0.463-0.243-0.927-0.486-1.39-0.729
			c-1.663,5.371,3.387,5.464,6.181,2.006c-0.463-0.243-0.927-0.486-1.39-0.729c-1.651,3.789-3.187,10.854,3.409,8.972
			c3.56-1.017,9.475-5.129,8.655-9.473c-0.098-0.519-0.645-0.782-1.12-0.577c-3.607,1.554-6.776,8.809-1.643,10.334
			c4.812,1.43,5.454-7.271,4.295-9.959c-0.44,0.284-0.88,0.568-1.32,0.853c4.133,4.267,9.961,1.499,13.575-2.146
			c-0.434-0.227-0.868-0.453-1.302-0.68c-0.033,7.271-0.428,14.872-3.162,21.689c-0.526,1.312-6.133,9.278-6.209,1.832
			c-0.025-2.47,1.197-4.979,2.492-7.006c1.663-2.602,4.655-3.593,7.419-4.479c2.854-0.916,21.372-5.91,15.231-11.518
			c-4.902-4.477-6.778,6.039-5.645,9.077c1.064,2.854,4.464,3.211,6.965,2.251c2.539-0.975,4.478-2.248,6.071-4.46
			c2.515-3.493,2.965-6.455,8.216-6.515c-0.089-0.507-0.178-1.013-0.268-1.52c-3.625,1.892-7.815,3.272-8.759,7.677
			c-0.965,4.498,4.172,5.411,7.325,5.017c10.079-1.26,14.262-14.991,15.036-23.311c0.083-0.89-1.296-1.247-1.554-0.355
			c-1.484,5.125-9.286,19.969-1.816,23.827c6.291,3.248,10.153-10.36,14.094-12.682c-0.38-0.195-0.76-0.392-1.139-0.588
			c0.264,3.837,0.11,16.942-6.41,12.298c-0.107,0.484-0.215,0.97-0.322,1.454c6.267-1.011,12.642,0.646,18.938,0.646
			c3.488,0,6.977,0.001,10.466,0.001c3.694,0.001,7.327,0.211,10.92-0.813c5.193-1.481,9.125-5.867,12.586-9.747
			c-0.486-0.108-0.972-0.216-1.458-0.323c0.855,4.459-0.207,9.907-6.271,8.046c-0.992-0.306-1.556,1.196-0.561,1.516
			c16.181,5.194,19.612-11.367,24.359-22.879c-0.522-0.119-1.044-0.238-1.566-0.357c-0.616,8.107-4.524,15.685-4.144,23.896
			c0.044,0.948,1.492,0.801,1.604-0.064c0.367-2.808,0.927-5.569,1.888-8.238c0.289-0.781,0.67-1.516,1.142-2.205
			c1.095,0.283,2.189,0.565,3.284,0.848c-0.081,0.638-0.256,1.247-0.524,1.827c-0.146,0.376-3.233,5.101-3.563,2.441
			c-0.473,0.222-0.945,0.443-1.418,0.666c2.715,2.527,7.035,6.228,11.022,5.114c3.859-1.077,4.376-7.156,5.692-10.149
			c-0.508-0.188-1.016-0.376-1.523-0.564c-0.974,3.421-2.147,11.545,3.881,9.055c8.204-3.39,7.66-15.168,10.724-21.954
			c-0.497-0.185-0.995-0.368-1.492-0.553c-2.345,5.234-13.693,24.489-0.604,24.799c9.272,0.219,13.159-18.095,14.039-24.768
			c0.122-0.926-1.18-1.138-1.526-0.348c-2.631,5.987-6.942,16.006-4.521,22.565c3.124,8.463,13.211-7.122,14.952-8.552
			c-0.433-0.226-0.864-0.45-1.297-0.676c-0.074,1.139-3.146,11.864-5.318,9.145c-0.226,0.433-0.45,0.864-0.676,1.297
			c8.403,1.047,16.673,0.937,25.107,0.729c2.866-0.07,5.717,0.219,8.382-0.99c1.845-0.836,3.438-1.64,5.026-2.914
			c2.989-2.398,4.747-5.646,9.078-5.767c-0.088-0.5-0.177-0.999-0.265-1.499c-2.717,1.527-15.387,6.627-8.419,11.506
			c4.685,3.28,11.16-6.878,12.373-10.201c0.319-0.875-0.835-1.404-1.387-0.726c-3.666,4.513-3.366,13.886,4.417,10.429
			c3.232-1.436,4.874-6.528,6.042-9.491c1.857-4.71,3.065-9.641,4.539-14.476c0.295-0.968-1.157-1.518-1.48-0.547
			c-1.379,4.143-3.35,8.09-4.896,12.173c-1.025,2.709-3.312,7.824-1.9,10.785c2.961,6.211,12.235-0.521,12.475-5.472
			c0.026-0.562-0.401-0.874-0.923-0.852c-0.962-0.055-1.898,0.069-2.81,0.373c-0.69,0.165-0.961,1.313-0.137,1.518
			c4.885,1.217,8.144-0.156,12.366-2.636c0.884-0.519,0.28-1.764-0.678-1.426c-4.474,1.577-10.086,7.826-3.31,10.463
			c5.385,2.095,8.442-5.777,4.741-9.119c-0.605-0.547-1.498,0.32-1.166,0.985c3.19,6.386,8.243,1.612,11.583-2.121
			c-0.432-0.302-0.863-0.604-1.295-0.906c-2.315,2.628-4.579,7.737-0.795,10.098c4.789,2.987,8.548-5.386,10.078-8.231
			c-0.464-0.243-0.929-0.487-1.394-0.73c-1.394,2.734-2.088,5.376-1.956,8.44c0.016,0.342,0.391,0.629,0.707,0.653
			c10.567,0.788,15.092-14.709,17.113-22.597c-0.514-0.117-1.027-0.234-1.541-0.352c-0.782,6.039-7.998,12.803-5.95,19.104
			c1.925,5.923,9.088,4.765,13.963,4.765c5.005,0.001,10.014,0.066,15.018-0.021c8.577-0.149,13.14-10.13,21.712-9.975
			c-0.09-0.51-0.18-1.02-0.27-1.528c-3.101,1.285-6.372,2.107-7.912,5.319c-1.293,2.695,1.732,5.69,3.925,6.602
			c9.764,4.058,11.106-9.257,19.591-8.388c-0.021-0.534-0.043-1.069-0.064-1.604c-3.973,0.243-13.356,4.282-7.043,8.51
			c5.436,3.642,12.479-2.379,8.92-8.062c-0.362-0.579-1.222-0.644-1.501,0.066c-0.494,1.259-0.48,1.231-0.714,2.54
			c-0.073,0.41,0.315,0.888,0.734,0.889c4.589,0.02,8.3-1.936,12.428-3.74c-0.388-0.271-0.776-0.544-1.164-0.815
			c-0.357,3.412-2.535,6.007-3.724,9.126c-0.357,0.936,0.853,1.404,1.438,0.754c1.903-2.113,3.425-4.511,5.478-6.5
			c3.136-3.038,2.055,3.608,2.038,3.791c-0.071,0.764,0.181,1.278,0.508,1.926c1.204,2.388,4.058,0.702,5.233-0.577
			c5.682-6.18,6.587-15.565,10.284-22.822c0.373-0.733-0.745-1.494-1.31-0.917c-4.28,4.365-8.431,16.44-5.795,22.319
			c4.388,9.787,15.385-5.982,20.474-6.205c-0.097-0.545-0.192-1.09-0.289-1.635c-2.63,0.48-14.795,5.382-9.834,9.939
			c3.753,3.447,11.13-3.528,12.091-7.166c0.202-0.762-0.641-1.511-1.317-0.923c-4.099,3.562-3.204,8.246,2.147,9.778
			c6.329,1.811,9.051-10.426,14.102-8.363c0.123-0.537,0.245-1.074,0.367-1.61c-2.67-0.216-7.229,0.125-7.639,3.673
			c-0.298,2.581,1.539,5.042,4.196,5.367c12.19,1.49,14.496-16.837,18.147-24.588c0.406-0.863-0.967-1.565-1.468-0.77
			c-4.094,6.52-14.104,17.487-5.526,24.176c3.552,2.769,10.989,1.342,15.146,1.369c5.331,0.035,10.662,0.026,15.992,0.026
			c0.976,0,1.125-1.518,0.145-1.518c-7.56,0-15.147,0.095-22.701-0.199c-6.003-0.233-12.346-1.585-9.651-9.187
			c1.752-4.942,5.197-9.303,7.965-13.709c-0.489-0.257-0.979-0.513-1.468-0.77c-2.707,5.748-3.872,12.079-7.018,17.646
			c-1.935,3.421-5.678,6.859-9.914,5.717c-1.654-0.447-2.552-2.151-2.068-3.741c0.669-2.197,4.055-1.968,5.705-1.835
			c0.955,0.077,1.238-1.255,0.367-1.61c-2.01-0.82-3.493,0.008-5.063,1.332c-1.102,0.929-2.034,2.156-2.966,3.246
			c-0.844,0.986-1.715,1.93-2.681,2.796c-0.574,0.307-1.149,0.613-1.724,0.921c-3.951,0.564-5.057-1.729-3.317-6.88
			c-0.439-0.308-0.879-0.615-1.317-0.923c-0.81,3.063-4.916,6.145-7.817,6.984c-1.781-1.727-1.833-3.135-0.155-4.224
			c0.91-0.857,2.136-1.408,3.251-1.941c1.358-0.649,2.833-1.109,4.313-1.38c1.085-0.198,0.746-1.68-0.289-1.635
			c-5.266,0.231-13.623,12.96-18.165,8.128c-2.395-2.548-0.379-8.971,0.394-11.733c0.879-3.146,2.108-7.223,4.45-9.614
			c-0.437-0.306-0.873-0.611-1.31-0.917c-3.663,7.198-4.465,17.265-10.623,22.974c-2.854,2.646-1.651-4.102-1.766-5.361
			c-0.126-1.395-1.705-1.668-2.759-1.809c-3.093-0.412-6.532,6.179-8.185,8.014c0.479,0.251,0.959,0.503,1.438,0.754
			c1.276-3.352,3.437-5.904,3.815-9.54c0.066-0.637-0.604-1.061-1.164-0.815c-0.83,0.363-11.092,4.577-10.218,2.354
			c-0.5,0.021-1.001,0.044-1.501,0.066c1.429,1.861,1.194,3.787-0.703,5.777c-3.887,2.206-5.914,1.172-6.082-3.103
			c1.733-1.529,4.438-2.089,6.662-2.227c0.937-0.058,0.817-1.515-0.064-1.604c-3.521-0.36-5.961,1.144-8.224,3.768
			c-2.009,2.328-3.773,4.78-6.938,5.5c-2.479,0.564-11.72-3.679-4.334-7.89c1.373-0.782,2.975-1.241,4.432-1.845
			c0.718-0.297,0.527-1.514-0.27-1.528c-6.316-0.111-10.455,4.486-15.422,7.693c-4.639,2.996-10.266,2.311-15.529,2.311
			c-4.766,0.001-10.446,0.775-15.042-0.403c-8.629-2.215,2.059-16.871,2.687-21.721c0.114-0.885-1.315-1.234-1.541-0.352
			c-1.218,4.753-2.852,9.405-5.175,13.736c-1.283,2.392-2.925,4.569-5.024,6.296c-5.216,4.29-4.399-2.056-2.683-5.426
			c0.407-0.801-0.969-1.521-1.394-0.73c-0.902,1.679-1.778,3.361-2.803,4.971c-1.712,2.689-7.108,1.881-5.923-1.804
			c0.403-1.252,1.189-2.255,2.036-3.217c0.676-0.767-0.625-1.655-1.295-0.906c-2.096,2.343-6.22,7.635-8.862,2.35
			c-0.389,0.328-0.777,0.657-1.166,0.985c0.432,0.901,0.862,1.802,1.293,2.703c-1.055,4.18-3.076,4.02-6.063-0.482
			c1.049-1.717,3.092-2.786,4.923-3.432c-0.226-0.476-0.452-0.95-0.678-1.426c-3.686,2.164-6.718,3.684-11.142,2.581
			c-0.045,0.506-0.091,1.012-0.137,1.518c4.344-1.038-2.035,4.14-3.205,4.734c-6.371,3.241-3.949-6.041-3.214-8.352
			c1.569-4.926,4.051-9.502,5.681-14.398c-0.493-0.183-0.987-0.364-1.48-0.547c-1.477,4.843-2.768,9.725-4.539,14.475
			c-1.034,2.775-2.252,5.664-4.281,7.868c-2.401,2.608-5.749,0.98-5.605-2.393c0.079-1.86,1.065-3.563,2.201-4.961
			c-0.462-0.242-0.925-0.483-1.387-0.726c-1.302,3.566-4.317,7.236-7.524,9.215c-2.561,1.579-4.776-1.659-2.229-4.229
			c0.894-0.902,2.118-1.469,3.229-2.05c1.55-0.812,3.201-1.41,4.728-2.269c0.606-0.341,0.587-1.522-0.265-1.499
			c-4.165,0.116-6.488,2.522-9.347,5.315c-3.522,3.441-7.608,4.221-12.29,4.336c-8.719,0.215-17.269,0.374-25.957-0.709
			c-0.711-0.088-1.094,0.774-0.676,1.297c4.205,5.267,7.915-7.309,8.094-10.018c0.045-0.691-0.753-1.123-1.297-0.676
			c-2.027,1.664-3.444,4.007-5.022,6.072c-1.168,1.527-2.427,2.957-4.093,3.948c-4.102,2.44-3.816-3.563-3.699-5.113
			c0.434-5.768,2.565-11.888,4.886-17.171c-0.509-0.115-1.018-0.231-1.526-0.348c-0.949,7.205-3.733,19.144-10.654,22.884
			c-2.753,1.488-5.849-0.466-6.398-3.299c-0.52-2.674,0.732-5.719,1.645-8.169c1.385-3.719,3.416-7.137,5.038-10.746
			c0.422-0.939-1.072-1.479-1.492-0.553c-1.774,3.921-2.392,8.218-3.584,12.329c-0.8,2.76-2.064,5.206-4.178,7.179
			c-5.061,4.721-4.665-2.545-3.827-5.491c0.287-1.007-1.1-1.528-1.523-0.564c-1.093,2.485-1.546,5.189-2.882,7.575
			c-2.55,4.554-8.976-1.075-11.071-3.026c-0.58-0.539-1.523-0.185-1.418,0.666c0.785,6.347,8.954-1.93,7.129-6.02
			c-0.968-2.171-3.952-2.807-5.564-0.893c-2.647,3.145-3.29,7.851-3.807,11.806c0.534-0.021,1.069-0.043,1.604-0.064
			c-0.372-8.026,3.557-15.519,4.161-23.463c0.07-0.93-1.217-1.204-1.566-0.357c-4.305,10.444-7.203,26.764-22.279,21.926
			c-0.187,0.505-0.374,1.011-0.561,1.516c7.09,2.177,9.624-3.58,8.423-9.843c-0.145-0.749-1.006-0.829-1.458-0.323
			c-4.71,5.283-9.711,9.883-17.228,9.882c-2.865,0-5.73-0.001-8.596-0.001c-2.281,0-4.693-0.231-6.966,0.008
			c-6.453,0.681-12.576-1.684-19.076-0.636c-0.703,0.113-0.887,1.052-0.322,1.454c8.486,6.045,9.276-8.746,8.921-13.897
			c-0.034-0.499-0.715-0.838-1.139-0.588c-4.081,2.402-5.917,8.197-9.187,11.541c-2.281,2.332-4.467,1.218-5.333-1.811
			c-0.678-2.371,0.209-5.451,0.79-7.723c0.968-3.791,2.565-7.387,3.651-11.14c-0.518-0.118-1.036-0.237-1.554-0.355
			c-0.542,5.833-2.232,11.458-5.641,16.271c-2.4,3.389-6.179,5.773-10.384,5.765c-7.171-0.015-1.015-6.778,0.637-7.76
			c1.303-0.773,2.729-1.358,4.073-2.061c0.645-0.336,0.575-1.529-0.268-1.52c-4.57,0.053-6.683,1.715-8.77,5.646
			c-2.431,4.576-11.977,9.451-11.607,0.923c0.068-1.559,0.619-3.329,1.8-4.398c1.581-1.433,2.83,1.563,1.556,2.822
			c-0.842,0.833-1.967,1.384-3.003,1.932c-4.024,2.129-8.519,3.378-12.831,4.778c-4.33,1.405-7,4.073-8.721,8.245
			c-1.11,2.692-2.081,8.984,2.116,9.448c4.043,0.447,6.64-7.159,7.458-9.903c1.778-5.959,2.023-12.443,2.05-18.62
			c0.003-0.622-0.762-1.224-1.302-0.68c-2.704,2.728-7.689,6.1-11.342,2.329c-0.621-0.642-1.684,0.007-1.32,0.853
			c0.771,1.788,0.46,3.87-0.084,5.67c-0.852,2.817-4.307,0.996-3.488-1.663c0.465-1.508,1.563-2.999,3.031-3.632
			c-0.373-0.192-0.747-0.385-1.12-0.577c0.569,3.011-3.582,5.73-5.785,6.941c-1.095,0.602-3.325,1.66-4.472,0.615
			c-1.499-1.366,0.633-5.396,1.237-6.782c0.378-0.867-0.853-1.395-1.39-0.729c-1.321,2.206-2.455,2.022-3.401-0.549
			c0.27-0.871-0.827-1.437-1.39-0.729c-3.449,4.337-5.797,13.174-12.954,9.391c-0.601-0.317-1.644,0.229-1.168,0.987
			c4.38,6.972,8.658-3.14,6.683-7.65c-1.312-2.995-5.639-1.295-7.122,0.606c-4.094,5.246-3.281,13.153-5.337,19.207
			c0.509,0.116,1.018,0.232,1.527,0.349c0.396-7.942,6.289-14.255,6.068-22.361c-0.027-0.993-1.55-1.182-1.572-0.148
			c-0.209,9.807-11.393,10.148-18.675,10.148c-5.801,0-11.603,0-17.404,0c-12.093,0-24.187-0.049-36.279,0.006
			c-11.278,0.051-22.533,1.066-33.814,1.131c-10.359,0.06-21.885-0.17-29.498-8.259c-13.451-14.292,1.82-39.912,11.508-51.841
			c-0.459-0.241-0.919-0.482-1.378-0.723c-3.162,10.346-4.219,21.228-6.691,31.742c-2.594,11.032-6.941,23.535-18.269,28.18
			c-3.623,1.485-8.08,2.458-10.807-1.09c-2.198-2.86-1.625-7.351-0.789-10.572c2.422-9.334,10.771-15.906,20.478-14.978
			c1,0.097,1.144-1.449,0.146-1.549c-4.47-0.447-8.711-0.18-12.279,2.79c-3.302,2.748-4.826,7.543-6.669,11.262
			c-3.083,6.218-7.955,9.717-14.229,12.451c-5.377,2.343-13.516,4.126-15.511-3.13c-2.545-9.255,2.785-21.008,6.276-29.354
			c3.439-8.221,7.446-17.22,13.266-24.084c-0.461-0.169-0.922-0.339-1.383-0.509c-0.141,8.136-3.412,16.418-6.347,23.887
			c-3.765,9.58-8.478,19.047-14.845,27.178c-2.524,3.224-5.564,6.32-9.352,8.007c-6.054,2.695-11.348-1.506-11.049-7.705
			c0.711-14.808,15.319-17.311,27.151-18.962c0.715-0.1,0.813-1.18,0.127-1.405c-8.589-2.822-16.614-2.69-22.103,5.2
			c-5.358,7.705-7.351,17.406-16.592,21.724c-5.025,2.348-12.471,2.934-17.12-0.493c-3.691-2.721-3.843-7.975-3.068-12.045
			c1.858-9.76,11.878-18.854,20.733-10.415c0.2-0.384,0.4-0.768,0.601-1.151C39.069,29.707,27.219,66.313,0.733,59.65
			C0.062,59.481-0.322,60.494,0.356,60.67L0.356,60.67z"/>
	</g>
</g>
<g>
	<g>
		<path fill="none" d="M679.212,45.964c4.334-0.667,11.333-1.333,16-1.333"/>
		<path d="M679.153,46.582c5.308-0.007,10.655-0.936,15.978-1.096c1.081-0.032,1.286-1.695,0.162-1.711
			c-5.202-0.074-11.19,0.068-16.188,1.577C678.492,45.537,678.392,46.583,679.153,46.582L679.153,46.582z"/>
	</g>
</g>
<g>
	<g>
		<path fill="none" d="M724.878,46.298c4.667,0,10.667,0.666,15-0.667"/>
		<path d="M724.82,46.904c2.793,0.477,5.756,0.423,8.583,0.408c2.276-0.013,4.918,0.057,6.869-1.217
			c0.448-0.293,0.154-1.049-0.337-1.071c-2.413-0.114-4.901,0.558-7.352,0.587c-2.591,0.031-5.242-0.311-7.812,0.086
			C724.06,45.808,724.168,46.793,724.82,46.904L724.82,46.904z"/>
	</g>
</g>
</svg>
