<?xml version="1.0" encoding="utf-8"?>
<!-- Generator: Adobe Illustrator 12.0.0, SVG Export Plug-In . SVG Version: 6.00 Build 51448)  -->
<!DOCTYPE svg PUBLIC "-//W3C//DTD SVG 1.1//EN" "http://www.w3.org/Graphics/SVG/1.1/DTD/svg11.dtd" [
	<!ENTITY ns_svg "http://www.w3.org/2000/svg">
	<!ENTITY ns_xlink "http://www.w3.org/1999/xlink">
]>
<svg  version="1.1" id="Layer_1" xmlns="&ns_svg;" xmlns:xlink="&ns_xlink;" width="143.925" height="40.822"
	 viewBox="0 0 143.925 40.822" overflow="visible" enable-background="new 0 0 143.925 40.822" xml:space="preserve">
<g>
	<g>
		<line fill="none" x1="62.052" y1="5.81" x2="62.372" y2="5.81"/>
		<path d="M62.517,6.357c-0.208,0.177-0.076,0.06,0.111-0.008c0.503-0.181,0.405-0.937-0.049-1.101
			c-0.033-0.013-0.067-0.022-0.102-0.028c-0.208-0.049-0.211-0.049-0.013,0c-0.425-0.356-1.081,0.018-1.128,0.521
			C61.277,6.371,62.035,6.766,62.517,6.357L62.517,6.357z"/>
	</g>
</g>
<g>
	<g>
		<path fill="none" d="M98.148,7.491c5.025-1.182,10.562-0.086,16.611-1.597"/>
		<path d="M98.277,8.226c5.47-1.029,11.521,0.331,16.786-1.692c0.8-0.308,0.312-1.389-0.427-1.335
			c-3.03,0.222-5.981,0.687-9.038,0.775c-2.563,0.074-5.07,0.226-7.58,0.783C97.083,6.964,97.328,8.404,98.277,8.226L98.277,8.226z"
			/>
	</g>
</g>
<g>
	<g>
		<path fill="none" d="M0.527,24.655c7.027,0.639,18.721-1.596,18.401-10.859c0.639,8.307-6.069,14.694-6.069,22.361
			c1.597-4.152,2.236-16.93,5.75-19.486c9.902-7.347,5.111,15.652,0,6.709c7.985,4.791,10.221-5.11,14.055-9.584
			c-1.917,4.791,2.875,4.152,4.791,1.277c-7.346,15.973,12.138,4.792,10.542-0.638c-2.556,0.638-5.75,7.346-2.556,8.624
			c4.472,1.917,5.43-6.389,4.152-8.624c3.194,4.151,9.583,0.959,12.458-2.237c0,6.709-0.639,20.125-5.43,25.556
			c-4.792,5.431-6.389,0-5.112-4.793c1.278-4.151,3.195-7.025,7.348-8.624c1.916-0.957,23.638-6.389,17.568-11.18
			c-5.11-4.472-8.944,15.652,3.514,9.263c6.708-3.192,3.833-10.54,12.777-10.222c-2.875,1.598-7.985,3.196-8.305,7.029
			c-0.319,3.832,2.875,4.791,6.389,4.152c9.583-2.236,13.736-14.293,14.375-22.598c-1.277,4.792-6.708,16.208-3.833,20.999
			c4.791,8.306,11.499-9.263,15.012-10.86c0.321,3.834,0,19.166-7.666,13.098c7.987-1.599,12.337,1.637,19.076,0.637l15.424,0.002"
			/>
		<path d="M0.476,25.196c7.906,0.694,18.942-1.615,19.164-11.333c-0.475-0.045-0.949-0.09-1.424-0.135
			c0.208,8.088-5.689,14.4-6.087,22.359c-0.041,0.811,1.142,1.136,1.418,0.324c1.917-5.637,0.917-14.968,5.564-19.149
			c7.309-6.576,4.242,12.214,0.201,5.783c-0.383,0.324-0.766,0.647-1.149,0.972c8.36,4.418,10.854-4.385,15.143-9.772
			c-0.459-0.24-0.917-0.48-1.376-0.721c-1.663,5.363,3.38,5.45,6.169,1.999c-0.46-0.241-0.92-0.481-1.38-0.723
			c-1.65,3.786-3.188,10.846,3.402,8.965c3.558-1.016,9.472-5.126,8.652-9.467c-0.097-0.517-0.642-0.778-1.114-0.575
			c-3.605,1.553-6.773,8.804-1.644,10.328c4.809,1.43,5.45-7.269,4.292-9.955c-0.439,0.283-0.878,0.566-1.317,0.851
			c4.133,4.267,9.96,1.499,13.574-2.146c-0.434-0.226-0.867-0.452-1.301-0.679c-0.033,7.272-0.431,14.871-3.167,21.688
			c-0.525,1.308-6.123,9.263-6.197,1.834c-0.024-2.468,1.198-4.976,2.493-7.001c1.662-2.6,4.653-3.59,7.415-4.476
			c2.861-0.918,21.39-5.915,15.236-11.536c-4.917-4.49-6.805,6.039-5.667,9.092c1.067,2.862,4.474,3.218,6.979,2.248
			c2.534-0.98,4.47-2.259,6.061-4.469c2.517-3.496,2.969-6.46,8.226-6.52c-0.088-0.5-0.176-0.999-0.265-1.499
			c-3.62,1.89-7.809,3.27-8.752,7.668c-0.963,4.489,4.166,5.397,7.312,5.004c10.075-1.261,14.247-14.986,15.025-23.301
			c0.082-0.874-1.274-1.226-1.528-0.349c-1.485,5.122-9.293,19.96-1.828,23.819c6.287,3.251,10.156-10.352,14.098-12.669
			c-0.385-0.198-0.77-0.396-1.154-0.596c0.26,3.822,0.104,16.902-6.386,12.276c-0.11,0.499-0.221,0.998-0.332,1.496
			c5.047-0.813,9.522,0.254,14.495,0.777c2.238,0.235,4.52-0.126,6.768-0.125c4.341,0.001,8.681-0.072,13.021-0.071
			c0.976,0,1.125-1.518,0.145-1.518c-4.563,0-9.125-0.074-13.688-0.074c-6.984,0.001-14.105-1.74-21.028-0.622
			c-0.723,0.116-0.913,1.082-0.332,1.496c8.511,6.06,9.305-8.749,8.945-13.919c-0.035-0.506-0.725-0.85-1.154-0.596
			c-4.081,2.406-5.913,8.203-9.182,11.55c-2.281,2.336-4.47,1.22-5.337-1.809c-0.679-2.372,0.207-5.454,0.786-7.727
			c0.966-3.791,2.562-7.388,3.646-11.142c-0.509-0.116-1.019-0.232-1.528-0.349c-0.54,5.835-2.233,11.463-5.643,16.276
			c-2.403,3.392-6.186,5.778-10.396,5.77c-7.191-0.016-1.025-6.798,0.633-7.782c1.304-0.773,2.729-1.359,4.073-2.061
			c0.635-0.332,0.567-1.508-0.265-1.499c-4.566,0.053-6.674,1.714-8.76,5.641c-2.427,4.569-11.97,9.429-11.602,0.918
			c0.067-1.555,0.617-3.322,1.795-4.39c1.567-1.42,2.803,1.554,1.539,2.804c-0.841,0.831-1.965,1.382-3,1.929
			c-4.024,2.13-8.519,3.38-12.831,4.779c-4.332,1.407-7.005,4.078-8.726,8.253c-1.112,2.697-2.078,8.995,2.125,9.458
			c4.048,0.447,6.643-7.161,7.462-9.909c1.776-5.96,2.02-12.444,2.047-18.621c0.003-0.622-0.762-1.223-1.301-0.679
			c-2.705,2.728-7.69,6.101-11.343,2.329c-0.62-0.64-1.681,0.007-1.317,0.851c0.576,1.337,0.473,2.737,0.306,4.14
			c-0.137,1.015-0.485,1.95-1.043,2.806c-2.968,0.086-3.915-0.894-2.84-2.938c0.119-0.385,2.455-4.87,1.814-2.752
			c-0.375,1.242-1.479,2.309-2.38,3.169c-1.519,1.447-3.438,2.604-5.458,3.18c-4.594,1.313-1.924-5.109-1.087-7.032
			c0.375-0.86-0.846-1.384-1.38-0.723c-1.324,2.21-2.461,2.024-3.413-0.556c0.267-0.862-0.818-1.422-1.376-0.721
			c-3.452,4.344-5.799,13.188-12.967,9.396c-0.591-0.313-1.618,0.226-1.149,0.972c4.37,6.958,8.63-3.145,6.662-7.641
			c-1.308-2.988-5.625-1.289-7.099,0.611c-4.08,5.257-3.241,13.162-5.298,19.218c0.473,0.108,0.945,0.216,1.418,0.324
			c0.394-7.942,6.283-14.257,6.051-22.363c-0.026-0.899-1.405-1.071-1.424-0.135C18.038,22.624,7.685,24.497,0.578,24.114
			C-0.12,24.077-0.224,25.135,0.476,25.196L0.476,25.196z"/>
	</g>
</g>
</svg>
