<?xml version="1.0" encoding="utf-8"?>
<!-- Generator: Adobe Illustrator 12.0.0, SVG Export Plug-In . SVG Version: 6.00 Build 51448)  -->
<!DOCTYPE svg PUBLIC "-//W3C//DTD SVG 1.1//EN" "http://www.w3.org/Graphics/SVG/1.1/DTD/svg11.dtd" [
	<!ENTITY ns_svg "http://www.w3.org/2000/svg">
	<!ENTITY ns_xlink "http://www.w3.org/1999/xlink">
]>
<svg  version="1.1" id="Layer_1" xmlns="&ns_svg;" xmlns:xlink="&ns_xlink;" width="120.184" height="25.609"
	 viewBox="0 0 120.184 25.609" overflow="visible" enable-background="new 0 0 120.184 25.609" xml:space="preserve">
<g>
	<g>
		<line fill="none" x1="64.185" y1="9.752" x2="64.504" y2="9.752"/>
		<path d="M64.71,10.372c0.023-0.017,0.047-0.033,0.07-0.05c-0.117,0.056-0.235,0.11-0.354,0.166c0.13-0.025,0.252-0.06,0.377-0.104
			c0.589-0.212,0.474-1.096-0.057-1.288c-0.033-0.013-0.067-0.022-0.103-0.028c-0.248-0.062-0.246-0.056,0.006,0.019
			c-0.5-0.353-1.218-0.018-1.274,0.59C63.304,10.436,64.148,10.765,64.71,10.372L64.71,10.372z"/>
	</g>
</g>
<g>
	<g>
		<path fill="none" d="M0.526,24.443l15.424,0.002c7.986,0.319,13.097-4.792,17.888-10.222c1.278,5.43-0.638,11.5-7.347,8.944
			c16.292,5.749,18.847-11.861,23.319-22.402c-0.32,7.347-4.792,16.652-4.152,23.68c0.319-2.555,1.915-13.417,6.068-12.139
			c5.75,1.277-3.515,13.417-3.834,7.028c1.598,1.597,6.745,5.429,9.302,5.108c4.152-0.64,4.434-6.707,6.032-9.9
			c-1.599,5.11-1.599,12.139,5.11,6.389c5.431-4.473,5.111-14.097,7.986-19.847c-1.916,4.473-11.819,20.484-3.514,23.36
			c9.264,3.514,14.777-18.25,15.416-23.68c-1.598,3.514-7.431,19.93-3.916,22.804c4.791,4.154,9.901-7.43,13.096-9.665
			c0,2.555-3.833,14.055-6.706,9.581c7.32,0.958,11.494,0.958,15.826,0.958l12.922-0.318"/>
		<path d="M0.476,24.984c4.914,0.106,9.829,0.155,14.745,0.165c8.45,0.017,13.792-4.425,19.218-10.505
			c-0.44-0.098-0.882-0.196-1.322-0.294c0.862,4.502-0.25,9.991-6.357,8.094c-0.946-0.294-1.483,1.139-0.535,1.447
			c16.139,5.24,19.594-11.396,24.323-22.854c-0.506-0.115-1.012-0.231-1.519-0.347c-0.617,8.105-4.526,15.682-4.146,23.891
			c0.043,0.923,1.451,0.779,1.562-0.063c0.367-2.81,0.928-5.573,1.89-8.244c0.289-0.782,0.671-1.519,1.145-2.209
			c1.106,0.287,2.214,0.574,3.321,0.861c-0.082,0.64-0.257,1.25-0.525,1.832c-0.149,0.379-3.266,5.145-3.601,2.438
			c-0.462,0.217-0.923,0.434-1.385,0.65c2.71,2.523,7.024,6.221,11.005,5.111c3.851-1.073,4.371-7.152,5.686-10.138
			c-0.501-0.186-1.003-0.371-1.504-0.557c-0.975,3.418-2.154,11.532,3.87,9.048C74.55,19.93,74.016,8.15,77.084,1.366
			c-0.507-0.188-1.015-0.375-1.521-0.563c-2.35,5.234-13.669,24.494-0.59,24.804C84.245,25.826,88.132,7.513,89.012,0.84
			c0.122-0.926-1.18-1.138-1.526-0.348c-2.632,5.991-6.949,16.006-4.531,22.569c3.124,8.482,13.23-7.102,14.979-8.534
			c-0.447-0.233-0.895-0.467-1.341-0.7c-0.075,1.127-3.146,11.773-5.262,9.122c-0.236,0.454-0.474,0.907-0.71,1.361
			c9.649,1.206,19.082,0.812,28.754,0.573c0.972-0.024,1.124-1.541,0.145-1.518c-9.616,0.237-19.171,0.483-28.742-0.706
			c-0.747-0.093-1.148,0.813-0.71,1.361c4.244,5.313,7.974-7.299,8.15-10.04c0.047-0.715-0.777-1.163-1.341-0.7
			c-2.027,1.669-3.443,4.014-5.021,6.082c-1.164,1.526-2.42,2.956-4.083,3.947c-4.083,2.434-3.8-3.556-3.685-5.1
			c0.431-5.774,2.555-11.883,4.878-17.172c-0.509-0.115-1.018-0.231-1.526-0.348c-0.949,7.205-3.733,19.144-10.654,22.884
			c-2.753,1.488-5.849-0.466-6.398-3.299c-0.521-2.676,0.733-5.717,1.654-8.165c1.397-3.714,3.424-7.135,5.043-10.745
			c0.429-0.957-1.094-1.509-1.521-0.563c-1.771,3.922-2.386,8.22-3.575,12.332c-0.798,2.76-2.06,5.207-4.172,7.181
			c-5.061,4.729-4.675-2.545-3.837-5.495c0.282-0.993-1.086-1.508-1.504-0.557c-1.092,2.487-1.544,5.192-2.88,7.58
			c-2.557,4.57-8.995-1.065-11.098-3.022c-0.566-0.526-1.487-0.181-1.385,0.65c0.782,6.314,8.904-1.946,7.092-6.008
			c-0.961-2.155-3.926-2.793-5.528-0.89c-2.646,3.142-3.286,7.844-3.803,11.796c0.521-0.021,1.041-0.042,1.562-0.063
			c-0.373-8.029,3.555-15.522,4.158-23.469c0.068-0.901-1.181-1.168-1.519-0.347c-4.32,10.491-7.196,26.747-22.315,21.951
			c-0.179,0.482-0.356,0.965-0.535,1.447c7.054,2.139,9.532-3.573,8.336-9.795c-0.13-0.681-0.912-0.753-1.322-0.294
			c-3.093,3.471-6.229,6.65-10.475,8.688c-2.874,1.381-6.062,1.247-9.156,1.253C9.263,23.751,4.92,23.81,0.577,23.902
			C-0.107,23.917-0.234,24.969,0.476,24.984L0.476,24.984z"/>
	</g>
</g>
</svg>
